<svg xmlns="http://www.w3.org/2000/svg" xmlns:xlink="http://www.w3.org/1999/xlink" fill="none" version="1.1" width="215" height="43" viewBox="0 0 215 43"><g><path d="M19.873,11.0762L21.3496,11.0762Q28.8027,11.0762,30.209,17.6328Q30.6484,19.6191,30.6484,22.2734Q30.6484,24.9277,30.0947,27.3359Q29.541,29.7441,28.3984,31.4492Q26.0254,35,21.3496,35L19.873,35L19.873,11.0762ZM7.49805,11.0762L16.9551,11.0762L16.9551,34.9648L7.49805,34.9648L7.49805,11.0762ZM35.3594,11.0762L44.8164,11.0762L44.8164,35L35.3594,35L35.3594,11.0762ZM62.4648,11.0762L72.2207,11.0762L72.2207,17.7207L70.3926,17.7207Q65.6289,17.7207,63.8887,16.2266Q62.4648,14.9961,62.4648,12.2539L62.4648,11.0762ZM49.9668,11.0762L59.4238,11.0762L59.4238,20.709L66.4727,20.709L66.4727,25.2969L59.4238,25.2969L59.4238,34.9648L49.9668,34.9648L49.9668,11.0762ZM89.4297,11.0762L99.1855,11.0762L99.1855,17.7207L97.3574,17.7207Q92.5938,17.7207,90.8535,16.2266Q89.4297,14.9961,89.4297,12.2539L89.4297,11.0762ZM76.9316,11.0762L86.3887,11.0762L86.3887,20.709L93.4375,20.709L93.4375,25.2969L86.3887,25.2969L86.3887,34.9648L76.9316,34.9648L76.9316,11.0762Z" fill="#000000" fill-opacity="0.8500000238418579"/><path d="M116.447,11.0586L126.221,11.0586L126.221,35L116.447,35L116.447,11.0586ZM103.826,11.0586L113.547,11.0586L113.547,35L111.965,35Q105.496,35,104.248,30.6055Q103.826,29.1816,103.826,27.3184L103.826,11.0586ZM142.357,11.0762L153.203,11.0762L153.203,23.1172L142.357,11.0762ZM130.879,18.1426L130.773,18.1426Q130.773,14.5215,132.742,12.7988Q134.711,11.0762,138.807,11.0762L153.203,28.5488Q153.203,32.0293,151.322,33.5234Q149.494,34.9824,145.346,34.9824L130.879,18.1426ZM130.826,22.8887L141.268,35L130.826,35L130.826,22.8887ZM170.324,11.0762L180.08,11.0762L180.08,17.7207L178.252,17.7207Q173.488,17.7207,171.748,16.2266Q170.324,14.9961,170.324,12.2539L170.324,11.0762ZM157.826,11.0762L167.283,11.0762L167.283,20.709L174.332,20.709L174.332,25.2969L167.283,25.2969L167.283,34.9648L157.826,34.9648L157.826,11.0762ZM170.307,33.2949Q170.307,29.6562,174.525,28.3555Q176.143,27.8633,178.691,27.8633L180.08,27.8633L180.08,35L170.307,35L170.307,33.2949ZM206.922,18.5117Q206.922,23.8203,202.281,25.4902Q204.883,26.457,206.201,28.6367Q207.344,30.5703,207.344,33.1367L207.344,35L196.867,35L196.867,11.041L197.781,11.041Q202.422,11.041,204.619,12.7988Q206.922,14.6445,206.922,18.5117ZM184.492,11.0762L193.949,11.0762L193.949,35L184.492,35L184.492,11.0762Z" fill="#3578FF" fill-opacity="1"/></g></svg>